<svg xmlns="http://www.w3.org/2000/svg" viewBox="0 0 100 100">
  <defs>
    <linearGradient id="bg" x1="0%" y1="0%" x2="100%" y2="100%">
      <stop offset="0%" style="stop-color:#1DA1F2;stop-opacity:1" />
      <stop offset="100%" style="stop-color:#0d8bd9;stop-opacity:1" />
    </linearGradient>
  </defs>
  <rect width="100" height="100" rx="20" fill="url(#bg)"/>
  <path
    d="M75 35c-2.5 1.1-5.2 1.8-8 2.2 2.9-1.7 5.1-4.5 6.1-7.8-2.7 1.6-5.7 2.8-8.9 3.4-2.5-2.7-6.1-4.4-10.1-4.4-7.6 0-13.8 6.2-13.8 13.8 0 1.1.1 2.1.4 3.1-11.5-.6-21.7-6.1-28.5-14.4-1.2 2-1.9 4.4-1.9 7 0 4.8 2.4 9 6.1 11.5-2.3-.1-4.4-.7-6.2-1.7v.2c0 6.7 4.8 12.3 11.1 13.5-1.2.3-2.4.5-3.6.5-.9 0-1.7-.1-2.6-.3 1.7 5.4 6.7 9.4 12.7 9.5-4.6 3.6-10.5 5.8-16.9 5.8-1.1 0-2.2-.1-3.3-.2 6 3.9 13.2 6.1 20.9 6.1 25.1 0 38.8-20.8 38.8-38.8 0-.6 0-1.2 0-1.8 2.6-1.9 5-4.3 6.8-7z"
    fill="white"
    transform="translate(5, 8) scale(0.9)"
  />
  <circle cx="75" cy="75" r="18" fill="#22c55e"/>
  <path
    d="M67 75l5 5 10-10"
    stroke="white"
    stroke-width="4"
    fill="none"
    stroke-linecap="round"
    stroke-linejoin="round"
  />
</svg>
